<mxfile host="app.diagrams.net" agent="Mozilla/5.0 (Macintosh; Intel Mac OS X 10_15_7) AppleWebKit/605.1.15 (KHTML, like Gecko) Version/18.1.1 Safari/605.1.15" version="26.0.3">
  <diagram name="Pagina-1" id="mxMTk9zsAOSSCfoB9VFg">
    <mxGraphModel grid="1" page="1" gridSize="10" guides="1" tooltips="1" connect="1" arrows="1" fold="1" pageScale="1" pageWidth="1169" pageHeight="827" math="0" shadow="0">
      <root>
        <mxCell id="0" />
        <mxCell id="1" parent="0" />
        <mxCell id="Mrnvp1R1xpzyusrPJHah-1" value="Model" style="shape=folder;fontStyle=1;spacingTop=10;tabWidth=40;tabHeight=14;tabPosition=left;html=1;whiteSpace=wrap;color=#808080;fontSize=18;fillColor=#f5f5f5;fontColor=#333333;strokeColor=#666666;" vertex="1" parent="1">
          <mxGeometry x="800" y="560" width="160" height="120" as="geometry" />
        </mxCell>
        <mxCell id="Mrnvp1R1xpzyusrPJHah-4" value="" style="endArrow=none;html=1;rounded=0;entryX=0.5;entryY=1;entryDx=0;entryDy=0;entryPerimeter=0;fontSize=18;" edge="1" parent="1">
          <mxGeometry width="50" height="50" relative="1" as="geometry">
            <mxPoint x="1010" y="480" as="sourcePoint" />
            <mxPoint x="880" y="400" as="targetPoint" />
            <Array as="points">
              <mxPoint x="880" y="480" />
            </Array>
          </mxGeometry>
        </mxCell>
        <mxCell id="Mrnvp1R1xpzyusrPJHah-5" value="" style="endArrow=none;html=1;rounded=0;entryX=0.5;entryY=1;entryDx=0;entryDy=0;entryPerimeter=0;fontSize=18;" edge="1" parent="1">
          <mxGeometry width="50" height="50" relative="1" as="geometry">
            <mxPoint x="1000" y="480" as="sourcePoint" />
            <mxPoint x="1120" y="400" as="targetPoint" />
            <Array as="points">
              <mxPoint x="1120" y="480" />
            </Array>
          </mxGeometry>
        </mxCell>
        <mxCell id="Mrnvp1R1xpzyusrPJHah-7" value="" style="endArrow=none;html=1;rounded=0;entryX=0.5;entryY=1;entryDx=0;entryDy=0;entryPerimeter=0;fontSize=18;" edge="1" parent="1">
          <mxGeometry width="50" height="50" relative="1" as="geometry">
            <mxPoint x="640" y="480" as="sourcePoint" />
            <mxPoint x="400" y="400" as="targetPoint" />
            <Array as="points">
              <mxPoint x="400" y="480" />
            </Array>
          </mxGeometry>
        </mxCell>
        <mxCell id="Mrnvp1R1xpzyusrPJHah-11" value="" style="endArrow=none;html=1;rounded=0;entryX=0.5;entryY=1;entryDx=0;entryDy=0;entryPerimeter=0;fontSize=18;" edge="1" parent="1">
          <mxGeometry width="50" height="50" relative="1" as="geometry">
            <mxPoint x="640" y="480" as="sourcePoint" />
            <mxPoint x="639.5" y="400" as="targetPoint" />
          </mxGeometry>
        </mxCell>
        <mxCell id="Mrnvp1R1xpzyusrPJHah-12" value="" style="endArrow=none;html=1;rounded=0;fontSize=18;" edge="1" parent="1">
          <mxGeometry width="50" height="50" relative="1" as="geometry">
            <mxPoint x="640" y="480" as="sourcePoint" />
            <mxPoint x="880" y="480" as="targetPoint" />
          </mxGeometry>
        </mxCell>
        <mxCell id="Mrnvp1R1xpzyusrPJHah-21" value="" style="endArrow=none;html=1;rounded=0;entryX=0.5;entryY=1;entryDx=0;entryDy=0;entryPerimeter=0;fontSize=18;" edge="1" parent="1">
          <mxGeometry width="50" height="50" relative="1" as="geometry">
            <mxPoint x="400" y="480" as="sourcePoint" />
            <mxPoint x="160" y="400" as="targetPoint" />
            <Array as="points">
              <mxPoint x="160" y="480" />
            </Array>
          </mxGeometry>
        </mxCell>
        <mxCell id="8hJkMyxVAhJ8r5LdQJgb-1" value="" style="endArrow=none;html=1;rounded=0;entryX=0.5;entryY=1;entryDx=0;entryDy=0;entryPerimeter=0;exitX=0.498;exitY=0.117;exitDx=0;exitDy=0;exitPerimeter=0;fontSize=18;" edge="1" parent="1">
          <mxGeometry width="50" height="50" relative="1" as="geometry">
            <mxPoint x="879.8799999999999" y="574" as="sourcePoint" />
            <mxPoint x="879.8799999999999" y="480" as="targetPoint" />
          </mxGeometry>
        </mxCell>
        <mxCell id="9yuUQLmokt3HeInqziIa-1" value="Internship Manager" style="shape=folder;fontStyle=1;spacingTop=10;tabWidth=40;tabHeight=14;tabPosition=left;html=1;whiteSpace=wrap;color=#808080;fontSize=18;fillColor=#ffe6cc;strokeColor=#d79b00;" vertex="1" parent="1">
          <mxGeometry x="1040" y="280" width="160" height="120" as="geometry" />
        </mxCell>
        <mxCell id="9yuUQLmokt3HeInqziIa-2" value="Selection Manager" style="shape=folder;fontStyle=1;spacingTop=10;tabWidth=40;tabHeight=14;tabPosition=left;html=1;whiteSpace=wrap;color=#808080;fontSize=18;fillColor=#fff2cc;strokeColor=#d6b656;" vertex="1" parent="1">
          <mxGeometry x="800" y="280" width="160" height="120" as="geometry" />
        </mxCell>
        <mxCell id="9yuUQLmokt3HeInqziIa-3" value="Recommendation Manager" style="shape=folder;fontStyle=1;spacingTop=10;tabWidth=40;tabHeight=14;tabPosition=left;html=1;whiteSpace=wrap;color=#808080;fontSize=18;fillColor=#d5e8d4;strokeColor=#82b366;" vertex="1" parent="1">
          <mxGeometry x="560" y="280" width="160" height="120" as="geometry" />
        </mxCell>
        <mxCell id="9yuUQLmokt3HeInqziIa-5" value="User&lt;div&gt;Manager&lt;/div&gt;" style="shape=folder;fontStyle=1;spacingTop=10;tabWidth=40;tabHeight=14;tabPosition=left;html=1;whiteSpace=wrap;color=#808080;fontSize=18;fillColor=#e1d5e7;strokeColor=#9673a6;" vertex="1" parent="1">
          <mxGeometry x="80" y="280" width="160" height="120" as="geometry" />
        </mxCell>
        <mxCell id="9yuUQLmokt3HeInqziIa-6" value="Position&lt;div&gt;Manager&lt;/div&gt;" style="shape=folder;fontStyle=1;spacingTop=10;tabWidth=40;tabHeight=14;tabPosition=left;html=1;whiteSpace=wrap;color=#808080;fontSize=18;fillColor=#dae8fc;strokeColor=#6c8ebf;" vertex="1" parent="1">
          <mxGeometry x="320" y="280" width="160" height="120" as="geometry" />
        </mxCell>
        <mxCell id="9yuUQLmokt3HeInqziIa-7" value="Driver" style="shape=folder;fontStyle=1;spacingTop=10;tabWidth=40;tabHeight=14;tabPosition=left;html=1;whiteSpace=wrap;fontSize=18;" vertex="1" parent="1">
          <mxGeometry x="1520" y="80" width="160" height="120" as="geometry" />
        </mxCell>
        <mxCell id="9yuUQLmokt3HeInqziIa-8" value="Driver" style="shape=folder;fontStyle=1;spacingTop=10;tabWidth=40;tabHeight=14;tabPosition=left;html=1;whiteSpace=wrap;fontSize=18;" vertex="1" parent="1">
          <mxGeometry x="1280" y="80" width="160" height="120" as="geometry" />
        </mxCell>
        <mxCell id="9yuUQLmokt3HeInqziIa-9" value="Delivery&lt;div&gt;Submanager&lt;/div&gt;" style="shape=folder;fontStyle=1;spacingTop=10;tabWidth=40;tabHeight=14;tabPosition=left;html=1;whiteSpace=wrap;color=#808080;fontSize=18;fillColor=#f8cecc;strokeColor=#b85450;" vertex="1" parent="1">
          <mxGeometry x="1520" y="280" width="160" height="120" as="geometry" />
        </mxCell>
        <mxCell id="9yuUQLmokt3HeInqziIa-10" value="Formatting&lt;div&gt;Submanager&lt;/div&gt;" style="shape=folder;fontStyle=1;spacingTop=10;tabWidth=40;tabHeight=14;tabPosition=left;html=1;whiteSpace=wrap;color=#808080;fontSize=18;fillColor=#f8cecc;strokeColor=#b85450;" vertex="1" parent="1">
          <mxGeometry x="1280" y="280" width="160" height="120" as="geometry" />
        </mxCell>
        <mxCell id="9yuUQLmokt3HeInqziIa-11" value="" style="endArrow=none;html=1;rounded=0;entryX=0.5;entryY=1;entryDx=0;entryDy=0;entryPerimeter=0;exitX=0.498;exitY=0.117;exitDx=0;exitDy=0;exitPerimeter=0;fontSize=18;" edge="1" parent="1" source="9yuUQLmokt3HeInqziIa-10" target="9yuUQLmokt3HeInqziIa-8">
          <mxGeometry width="50" height="50" relative="1" as="geometry">
            <mxPoint x="1600" y="290" as="sourcePoint" />
            <mxPoint x="1650" y="240" as="targetPoint" />
          </mxGeometry>
        </mxCell>
        <mxCell id="9yuUQLmokt3HeInqziIa-12" value="" style="endArrow=none;html=1;rounded=0;entryX=0.5;entryY=1;entryDx=0;entryDy=0;entryPerimeter=0;exitX=0.498;exitY=0.117;exitDx=0;exitDy=0;exitPerimeter=0;fontSize=18;" edge="1" parent="1">
          <mxGeometry width="50" height="50" relative="1" as="geometry">
            <mxPoint x="1599.5" y="294" as="sourcePoint" />
            <mxPoint x="1599.5" y="200" as="targetPoint" />
          </mxGeometry>
        </mxCell>
        <mxCell id="9yuUQLmokt3HeInqziIa-13" style="edgeStyle=orthogonalEdgeStyle;rounded=0;orthogonalLoop=1;jettySize=auto;html=1;entryX=0.5;entryY=1;entryDx=0;entryDy=0;entryPerimeter=0;endArrow=none;endFill=0;" edge="1" parent="1" source="Mrnvp1R1xpzyusrPJHah-1" target="9yuUQLmokt3HeInqziIa-10">
          <mxGeometry relative="1" as="geometry">
            <Array as="points">
              <mxPoint x="880" y="480" />
              <mxPoint x="1360" y="480" />
            </Array>
          </mxGeometry>
        </mxCell>
        <mxCell id="9yuUQLmokt3HeInqziIa-14" style="edgeStyle=orthogonalEdgeStyle;rounded=0;orthogonalLoop=1;jettySize=auto;html=1;entryX=0.5;entryY=1;entryDx=0;entryDy=0;entryPerimeter=0;endArrow=none;endFill=0;" edge="1" parent="1" source="Mrnvp1R1xpzyusrPJHah-1" target="9yuUQLmokt3HeInqziIa-9">
          <mxGeometry relative="1" as="geometry">
            <Array as="points">
              <mxPoint x="880" y="480" />
              <mxPoint x="1600" y="480" />
            </Array>
          </mxGeometry>
        </mxCell>
      </root>
    </mxGraphModel>
  </diagram>
</mxfile>
